<?xml version="1.0" encoding="iso-8859-1"?>
<!-- Generator: Adobe Illustrator 19.0.0, SVG Export Plug-In . SVG Version: 6.00 Build 0)  -->
<svg version="1.1" id="Capa_1" xmlns="http://www.w3.org/2000/svg" xmlns:xlink="http://www.w3.org/1999/xlink" x="0px" y="0px"
	 viewBox="0 0 512 512" style="enable-background:new 0 0 512 512;" xml:space="preserve">
<g>
	<g>
		<path d="M346,181.967c-64.985,0-121.678,37.638-148.507,93.028c-10.198-1.979-20.725-3.028-31.493-3.028
			c-91.533,0-166,74.019-166,165c0,20.038,8.022,38.915,22.588,53.153C37.001,504.209,55.97,511.968,76,511.968h180
			c41.355,0,75-33.645,75-75c0-5.057-0.241-10.058-0.689-15H436c20.03,0,38.999-7.759,53.412-21.847
			C503.978,385.882,512,367.005,512,346.967C512,255.986,437.533,181.967,346,181.967z M256,481.968H76c-24.935,0-46-20.608-46-45
			c0-52.441,30.279-97.991,74.393-120.335c-3.267,6.582-5.986,13.681-8.115,21.232c-2.248,7.973,2.393,16.26,10.366,18.508
			c7.975,2.249,16.26-2.393,18.508-10.366c4.17-14.787,12.576-31.083,25.529-39.3c0.106-0.067,0.213-0.123,0.318-0.188v40.45
			c0,8.284,6.716,15,15,15s15-6.716,15-15v-40.45c0.106,0.066,0.213,0.122,0.319,0.189c12.948,8.214,21.353,24.493,25.529,39.3
			c2.249,7.977,10.537,12.614,18.508,10.366c7.973-2.248,12.614-10.534,10.366-18.508c-2.096-7.434-4.768-14.426-7.968-20.923
			C271.217,339.395,301,384.767,301,436.968C301,461.781,280.813,481.968,256,481.968z M436,391.967H324.762
			c-14.05-49.502-50.684-89.601-98.008-108.409c13.149-24.865,33.358-44.491,57.609-56.862c-3.254,6.565-5.963,13.642-8.085,21.169
			c-2.248,7.973,2.393,16.26,10.366,18.508c7.976,2.249,16.26-2.393,18.508-10.366c4.17-14.787,12.576-31.083,25.529-39.3
			c0.106-0.067,0.213-0.123,0.318-0.188v40.45c0,8.284,6.716,15,15,15s15-6.716,15-15v-40.45c0.106,0.066,0.213,0.122,0.319,0.189
			c12.948,8.214,21.353,24.493,25.529,39.3c2.249,7.977,10.537,12.614,18.508,10.366c7.973-2.248,12.614-10.534,10.366-18.508
			c-2.129-7.551-4.847-14.649-8.115-21.232C451.721,248.977,482,294.527,482,346.967C482,371.36,460.935,391.967,436,391.967z"/>
	</g>
</g>
<g>
	<g>
		<path d="M190.069,89.514c14.236-9.49,22.735-25.745,22.735-43.481c0-17.736-8.499-33.99-22.734-43.481
			c-6.893-4.595-16.206-2.733-20.801,4.16c-4.596,6.893-2.733,16.206,4.16,20.801c5.871,3.914,9.376,10.837,9.375,18.519
			c0,7.682-3.505,14.605-9.375,18.519c-14.236,9.491-22.735,25.559-22.735,42.981c0,17.425,8.499,33.493,22.735,42.983
			c6.895,4.596,16.208,2.73,20.801-4.161c4.595-6.893,2.732-16.206-4.161-20.801c-5.958-3.972-9.376-10.54-9.376-18.019
			S184.11,93.487,190.069,89.514z"/>
	</g>
</g>
<g>
	<g>
		<path d="M265.069,89.514c14.236-9.49,22.735-25.745,22.735-43.481c0-17.736-8.499-33.99-22.734-43.481
			c-6.894-4.595-16.206-2.733-20.801,4.16c-4.596,6.893-2.733,16.206,4.16,20.801c5.871,3.914,9.376,10.837,9.375,18.519
			c0,7.682-3.505,14.605-9.375,18.519c-14.236,9.491-22.735,25.559-22.735,42.981c0,17.425,8.499,33.493,22.735,42.983
			c6.895,4.596,16.208,2.73,20.801-4.161c4.595-6.893,2.732-16.206-4.161-20.801c-5.958-3.972-9.376-10.54-9.376-18.019
			S259.11,93.487,265.069,89.514z"/>
	</g>
</g>
<g>
	<g>
		<path d="M340.069,89.514c14.236-9.49,22.735-25.745,22.735-43.481c0-17.736-8.499-33.99-22.734-43.481
			c-6.892-4.595-16.206-2.733-20.801,4.16c-4.596,6.893-2.733,16.206,4.16,20.801c5.871,3.914,9.376,10.837,9.375,18.519
			c0,7.682-3.505,14.605-9.375,18.519c-14.236,9.491-22.735,25.559-22.735,42.981c0,17.425,8.499,33.493,22.735,42.983
			c6.895,4.596,16.208,2.73,20.801-4.161c4.595-6.893,2.732-16.206-4.161-20.801c-5.958-3.972-9.376-10.54-9.376-18.019
			S334.11,93.487,340.069,89.514z"/>
	</g>
</g>
<g>
</g>
<g>
</g>
<g>
</g>
<g>
</g>
<g>
</g>
<g>
</g>
<g>
</g>
<g>
</g>
<g>
</g>
<g>
</g>
<g>
</g>
<g>
</g>
<g>
</g>
<g>
</g>
<g>
</g>
</svg>
